# xmcd CD database file
#
# Track frame offsets:
#	150
#	17512
#	34402
#	48372
#	60755
#	76171
#	92368
#	108261
#	119657
#	139775
#	158315
#	177507
#	196166
#	208188
#	220528
#
# Disc length: 3161 seconds
#
# Revision: 0
# Processed by: cddbd v1.5.2PL0 Copyright (c) Steve Scherf et al.
# Submitted via: CDex 1.79
#
DISCID=b90c570f
DTITLE=Mint Julep - High-Tone Places
DYEAR=2012
DGENRE=Jazz
TTITLE0=My baby Just Cares for Me
TTITLE1=Dream a little Dream of Me
TTITLE2=Time after Time
TTITLE3=How High the Moon
TTITLE4=Lover, Come back to me
TTITLE5=All too soon
TTITLE6=Just squeeze me
TTITLE7=between the devil and the deep blue sea
TTITLE8=sentimental journey
TTITLE9=Just a lucky So and so
TTITLE10=What'll I do
TTITLE11=Honeysuckle Rose
TTITLE12=Exactly Like You
TTITLE13=On the Sunny Side of the Street
TTITLE14=The Very Thought of You
EXTD=YEAR: 2012
EXTT0=
EXTT1=
EXTT2=
EXTT3=
EXTT4=
EXTT5=
EXTT6=
EXTT7=
EXTT8=
EXTT9=
EXTT10=
EXTT11=
EXTT12=
EXTT13=
EXTT14=
PLAYORDER=
